# xmcd
# Copyright (C) 1995-1998 Ti Kan
#
# Track frame offsets:
#       150
#       16480
#       37215
#       54857
#       78820
#       97682
#       117652
#       132435
#       158860
#
# Disc length: 2421 seconds
#
# Revision: 0
# Processed by: cddbd v1.5.2PL0 Copyright (c) Steve Scherf et al.
# Submitted via: CD-Import v1.0
#
DISCID=6b097309
DTITLE=Sia - Lady Croissant
DYEAR=2007
DGENRE=
TTITLE0=Pictures
TTITLE1=Don't Bring Me Down
TTITLE2=Destiny
TTITLE3=Blow It All Away
TTITLE4=Lentil
TTITLE5=Numb
TTITLE6=I Go To Sleep
TTITLE7=Breathe Me
TTITLE8=Distractions
EXTD=
EXTT0=
EXTT1=
EXTT2=
EXTT3=
EXTT4=
EXTT5=
EXTT6=
EXTT7=
EXTT8=
PLAYORDER=
